<?xml version="1.0" encoding="UTF-8"?>
<svg width="460px" height="92px" viewBox="0 0 460 92" version="1.1" xmlns="http://www.w3.org/2000/svg" xmlns:xlink="http://www.w3.org/1999/xlink">
    <!-- Generator: Sketch 46.2 (44496) - http://www.bohemiancoding.com/sketch -->
    <title>Group</title>
    <desc>Created with Sketch.</desc>
    <defs>
        <polygon id="path-1" points="79.9576735 63 0.00644897959 63 0.00644897959 0.0106783871 79.9576735 0.0106783871"></polygon>
    </defs>
    <g id="Page-1" stroke="none" stroke-width="1" fill="none" fill-rule="evenodd">
        <g id="Group">
            <g id="Page-1-Copy">
                <g id="Group-3" transform="translate(0.000000, 29.000000)">
                    <mask id="mask-2" fill="white">
                        <use xlink:href="#path-1"></use>
                    </mask>
                    <g id="Clip-2"></g>
                    <path d="M78.3754286,0.0162783871 L77.8023673,0.0162783871 C77.6156327,0.0036783871 77.4884898,0.0162783871 77.4884898,0.0162783871 L59.2970612,0.0162783871 L58.5956327,0.0162783871 C57.7419592,0.289820323 57.4282857,0.886694516 57.4282857,1.74512032 C57.4211429,1.79897516 57.4211429,25.8895655 57.4211429,25.8895655 C57.3978776,26.2935784 57.2525714,27.0875816 56.4846122,27.5974752 L40.9280816,37.8815139 C40.7927755,37.96443 40.536449,38.0951042 40.2095102,38.14713 C40.1307347,38.155259 40.0560408,38.155259 39.9823673,38.1532268 C39.9076735,38.155259 39.8331837,38.155259 39.7554286,38.14713 C39.4284898,38.0951042 39.1709388,37.96443 39.0358367,37.8815139 L23.4786939,27.5974752 C22.7117551,27.0875816 22.5660408,26.2935784 22.5433878,25.8895655 C22.5433878,25.8895655 22.5433878,1.79897516 22.5356327,1.74512032 C22.5356327,0.886694516 22.2213469,0.289820323 21.3676735,0.0162783871 L20.6662449,0.0162783871 L2.47481633,0.0162783871 C2.47481633,0.0162783871 2.34828571,0.0036783871 2.16216327,0.0162783871 L1.58828571,0.0162783871 C0.909714286,0.119720323 0.00644897959,0.553200968 0.00644897959,2.12230742 L0.00644897959,21.2830461 L0.00644897959,31.3081752 L0.00644897959,31.4264526 L0.00644897959,34.0507074 C0.00951020408,34.1460203 0.00746938776,34.2228397 0.0135918367,34.3431494 C0.047877551,34.8550752 0.247673469,35.9496494 1.40318367,36.7497494 C1.40318367,36.7497494 1.73910204,36.9820365 1.77563265,37.01313 C1.77563265,37.01313 12.5782857,44.5009848 22.4776735,51.3622945 C30.8386939,57.16053 38.5505306,62.5043526 38.5505306,62.5043526 C38.5576735,62.5084171 38.5937959,62.5336171 38.6019592,62.5417461 C38.6393061,62.5726365 38.7209388,62.6350268 38.8672653,62.7224139 C39.1125714,62.8652816 39.5021633,63.00693 39.9823673,62.9998171 C40.4617551,63.00693 40.8513469,62.8652816 41.096449,62.7224139 C41.244,62.6350268 41.3246122,62.5726365 41.3619592,62.5417461 C41.3711429,62.5336171 41.4072653,62.5084171 41.4133878,62.5043526 C41.4133878,62.5043526 49.1252245,57.16053 57.4868571,51.3622945 C67.3862449,44.5009848 78.1876735,37.01313 78.1876735,37.01313 C78.2242041,36.9820365 78.5611429,36.7497494 78.5611429,36.7497494 C79.7166531,35.9496494 79.916449,34.8550752 79.9509388,34.3431494 C79.9566531,34.2228397 79.9548163,34.1460203 79.9576735,34.0507074 L79.9576735,31.4264526 L79.9576735,31.3081752 L79.9576735,21.2830461 L79.9576735,2.12230742 C79.9576735,0.553200968 79.0546122,0.119720323 78.3754286,0.0162783871" id="Fill-1" fill="#FFC82C" mask="url(#mask-2)"></path>
                </g>
                <path d="M78.1746814,0 L78.1534472,0 L1.84594025,0 L1.82572699,0 C0.818126598,0 0,0.812390679 0,1.81553776 L0,20.4464859 C0,20.4464859 0.00449183558,20.483662 0.0126588094,20.543794 C0.00102087172,20.6370391 -0.0106170659,20.7926508 0.0226633522,21.0246464 C0.0792196457,21.3789373 0.294827753,21.7996577 0.789950539,22.0899569 C1.03516393,22.2845731 1.35122581,22.4233235 1.76917069,22.4233235 L2.16894406,22.4233235 L27.3389447,22.4233235 L27.5327062,22.4233235 C27.8648978,22.4233235 28.0849978,22.4793925 28.2536458,22.5580109 C28.4241314,22.6638513 28.5711369,22.839981 28.6615861,23.1217479 L28.7179382,23.7494766 L28.7158965,50.0169784 C28.7158965,50.9845745 29.0723849,52.0372898 29.9152166,52.6030582 C30.0111785,52.6652217 38.8213015,58.568919 38.8213015,58.568919 C38.8213015,58.568919 39.3252038,58.9916709 39.9752949,58.9977654 C39.8642241,58.9977654 39.4613881,59 39.9875454,59 L40.0004083,59 L40.012863,59 C40.5386119,59 40.1367968,58.9977654 40.025726,58.9977654 C40.6747962,58.9916709 41.1786985,58.568919 41.1786985,58.568919 C41.1786985,58.568919 49.9902507,52.6652217 50.084375,52.6030582 C50.9292485,52.0372898 51.284716,50.9845745 51.284716,50.0169784 L51.2826743,23.7494766 L51.3382097,23.1217479 C51.4290673,22.839981 51.5754603,22.6638513 51.7469667,22.5580109 C51.9156147,22.4793925 52.1346938,22.4233235 52.4668855,22.4233235 L52.6606469,22.4233235 L77.8304434,22.4233235 L78.2312377,22.4233235 C78.6483658,22.4233235 78.9652444,22.2845731 79.2094369,22.0899569 C79.7053764,21.7996577 79.9213929,21.3789373 79.9769283,21.0246464 C80.0102087,20.7926508 79.9991833,20.6370391 79.9881579,20.543794 C79.9961207,20.483662 80,20.4464859 80,20.4464859 L80,1.81553776 C80,0.812390679 79.1814651,0 78.1746814,0" id="Fill-4" fill="#FFC82C"></path>
            </g>
            <path d="M129.3545,36.6045 C129.3545,36.8675 129.2635,37.0875 129.0835,37.2675 C128.9035,37.4475 128.6825,37.5375 128.4205,37.5375 L121.4525,37.5375 C121.1885,37.5375 120.9675,37.6195 120.7895,37.7835 C120.6085,37.9475 120.5185,38.1595 120.5185,38.4205 L120.5185,62.6195 C120.5185,62.8815 120.4365,63.1025 120.2735,63.2825 C120.1095,63.4615 119.8975,63.5515 119.6355,63.5515 L112.8135,63.5515 C112.5495,63.5515 112.3295,63.4615 112.1495,63.2825 C111.9695,63.1025 111.8805,62.8815 111.8805,62.6195 L111.8805,38.4205 C111.8805,38.1595 111.7985,37.9475 111.6345,37.7835 C111.4705,37.6195 111.2585,37.5375 110.9965,37.5375 L104.0265,37.5375 C103.7645,37.5375 103.5435,37.4475 103.3645,37.2675 C103.1845,37.0875 103.0945,36.8675 103.0945,36.6045 L103.0945,30.1255 C103.0945,29.5045 103.4045,29.1935 104.0265,29.1935 L110.9965,29.1935 L112.8135,29.1935 L119.6355,29.1935 L121.4525,29.1935 L128.4205,29.1935 C128.6825,29.1935 128.9035,29.2845 129.0835,29.4625 C129.2635,29.6435 129.3545,29.8645 129.3545,30.1255 L129.3545,36.6045 Z" id="Fill-7" fill="#FCD000"></path>
            <path d="M142.769,45.5383 L154.597,45.5383 L154.597,37.1933 L142.769,37.1933 L142.769,45.5383 Z M164.364,62.7663 C164.495,62.9963 164.512,63.1833 164.413,63.3313 C164.315,63.4783 164.136,63.5513 163.874,63.5513 L156.069,63.5513 C155.808,63.5513 155.546,63.4783 155.284,63.3313 C155.022,63.1833 154.825,62.9963 154.695,62.7663 L149.492,53.4403 C149.427,53.3103 149.312,53.2443 149.149,53.2443 L143.308,53.2443 C143.144,53.2443 143.063,53.3263 143.063,53.4893 L143.063,62.6193 C143.063,63.2413 142.751,63.5513 142.13,63.5513 L135.356,63.5513 C134.734,63.5513 134.424,63.2413 134.424,62.6193 L134.424,30.1263 C134.424,29.5053 134.734,29.1933 135.356,29.1933 L157.542,29.1933 C158.327,29.1933 159.071,29.3483 159.775,29.6593 C160.479,29.9703 161.084,30.3803 161.591,30.8863 C162.099,31.3943 162.507,31.9993 162.818,32.7033 C163.13,33.4063 163.284,34.1503 163.284,34.9353 L163.284,47.8443 C163.284,49.0893 162.917,50.2093 162.181,51.2073 C161.444,52.2063 160.503,52.8843 159.358,53.2443 L159.211,53.2933 C158.981,53.3593 158.933,53.4573 159.063,53.5883 L159.112,53.6853 L164.364,62.7663 Z" id="Fill-9" fill="#FCD000"></path>
            <path d="M179.07,45.5383 L190.604,45.5383 L190.604,36.8993 L179.07,36.8993 L179.07,45.5383 Z M193.55,29.1933 C194.335,29.1933 195.079,29.3483 195.783,29.6593 C196.486,29.9703 197.092,30.3803 197.6,30.8863 C198.106,31.3943 198.515,31.9993 198.826,32.7033 C199.137,33.4063 199.293,34.1503 199.293,34.9353 L199.293,62.6193 C199.293,62.8823 199.202,63.1023 199.022,63.2823 C198.843,63.4623 198.621,63.5513 198.36,63.5513 L191.537,63.5513 C191.275,63.5513 191.054,63.4623 190.875,63.2823 C190.694,63.1023 190.604,62.8823 190.604,62.6193 L190.604,53.8333 C190.604,53.5713 190.522,53.3503 190.359,53.1713 C190.195,52.9913 189.982,52.9003 189.722,52.9003 L180.003,52.9003 C179.74,52.9003 179.52,52.9913 179.34,53.1713 C179.16,53.3503 179.07,53.5713 179.07,53.8333 L179.07,62.6193 C179.07,63.2413 178.759,63.5513 178.138,63.5513 L171.364,63.5513 C170.741,63.5513 170.431,63.2413 170.431,62.6193 L170.431,34.9353 C170.431,34.1503 170.579,33.4063 170.873,32.7033 C171.167,31.9993 171.576,31.3943 172.101,30.8863 C172.623,30.3803 173.236,29.9703 173.94,29.6593 C174.645,29.3483 175.389,29.1933 176.174,29.1933 L193.55,29.1933 Z" id="Fill-11" fill="#FCD000"></path>
            <path d="M214.1602,62.6192 C214.1602,63.2412 213.8482,63.5522 213.2272,63.5522 L206.4542,63.5522 C205.8322,63.5522 205.5212,63.2412 205.5212,62.6192 L205.5212,30.1262 C205.5212,29.5052 205.8322,29.1932 206.4542,29.1932 L213.2272,29.1932 C213.8482,29.1932 214.1602,29.5052 214.1602,30.1262 L214.1602,62.6192 Z" id="Fill-12" fill="#FCD000"></path>
            <path d="M242.4849,55.208 C242.7479,55.208 242.9589,55.298 243.1229,55.478 C243.2869,55.658 243.3689,55.879 243.3689,56.14 L243.3689,62.619 C243.3689,62.882 243.2869,63.103 243.1229,63.282 C242.9589,63.462 242.7479,63.552 242.4849,63.552 L221.2809,63.552 C220.6589,63.552 220.3489,63.241 220.3489,62.619 L220.3489,30.126 C220.3489,29.505 220.6589,29.193 221.2809,29.193 L228.0549,29.193 C228.6759,29.193 228.9869,29.505 228.9869,30.126 L228.9869,54.324 C228.9869,54.586 229.0769,54.799 229.2569,54.962 C229.4369,55.126 229.6569,55.208 229.9199,55.208 L242.4849,55.208 Z" id="Fill-13" fill="#FCD000"></path>
            <path d="M256.7046,37.4395 L256.7046,42.7895 C256.7046,42.9205 256.7846,42.9855 256.9506,42.9855 L270.9386,42.9855 C271.2006,42.9855 271.4216,43.0765 271.6006,43.2555 C271.7806,43.4355 271.8706,43.6575 271.8706,43.9185 L271.8706,48.8275 C271.8706,49.4485 271.5596,49.7585 270.9386,49.7585 L256.9506,49.7585 C256.7846,49.7585 256.7046,49.8415 256.7046,50.0045 L256.7046,55.3055 C256.7046,55.4695 256.7846,55.5505 256.9506,55.5505 L273.3916,55.5505 C273.6536,55.5505 273.8746,55.6415 274.0566,55.8215 C274.2336,56.0015 274.3256,56.2225 274.3256,56.4835 L274.3256,62.6195 C274.3256,62.8815 274.2336,63.1025 274.0566,63.2825 C273.8746,63.4615 273.6536,63.5515 273.3916,63.5515 L253.8086,63.5515 C253.0226,63.5515 252.2786,63.4045 251.5756,63.1105 C250.8706,62.8155 250.2576,62.4065 249.7336,61.8825 C249.2106,61.3605 248.8026,60.7465 248.5076,60.0425 C248.2126,59.3385 248.0656,58.5945 248.0656,57.8085 L248.0656,34.9355 C248.0656,34.1505 248.2126,33.4065 248.5076,32.7035 C248.8026,31.9995 249.2106,31.3945 249.7336,30.8865 C250.2576,30.3795 250.8706,29.9705 251.5756,29.6595 C252.2786,29.3485 253.0226,29.1935 253.8086,29.1935 L273.3916,29.1935 C273.6536,29.1935 273.8746,29.2845 274.0566,29.4625 C274.2336,29.6435 274.3256,29.8645 274.3256,30.1265 L274.3256,36.3105 C274.3256,36.5725 274.2336,36.7855 274.0566,36.9485 C273.8746,37.1125 273.6536,37.1935 273.3916,37.1935 L256.9506,37.1935 C256.7846,37.1935 256.7046,37.2765 256.7046,37.4395" id="Fill-14" fill="#FCD000"></path>
            <path d="M288.638,45.5383 L300.468,45.5383 L300.468,37.1933 L288.638,37.1933 L288.638,45.5383 Z M310.236,62.7663 C310.365,62.9963 310.382,63.1833 310.285,63.3313 C310.187,63.4783 310.005,63.5513 309.744,63.5513 L301.941,63.5513 C301.677,63.5513 301.416,63.4783 301.156,63.3313 C300.892,63.1833 300.697,62.9963 300.566,62.7663 L295.363,53.4403 C295.296,53.3103 295.183,53.2443 295.019,53.2443 L289.179,53.2443 C289.015,53.2443 288.933,53.3263 288.933,53.4893 L288.933,62.6193 C288.933,63.2413 288.623,63.5513 288,63.5513 L281.226,63.5513 C280.605,63.5513 280.294,63.2413 280.294,62.6193 L280.294,30.1263 C280.294,29.5053 280.605,29.1933 281.226,29.1933 L303.414,29.1933 C304.199,29.1933 304.943,29.3483 305.646,29.6593 C306.349,29.9703 306.955,30.3803 307.462,30.8863 C307.968,31.3943 308.378,31.9993 308.689,32.7033 C309,33.4063 309.156,34.1503 309.156,34.9353 L309.156,47.8443 C309.156,49.0893 308.787,50.2093 308.05,51.2073 C307.314,52.2063 306.375,52.8843 305.228,53.2443 L305.082,53.2933 C304.853,53.3593 304.802,53.4573 304.935,53.5883 L304.984,53.6853 L310.236,62.7663 Z" id="Fill-15" fill="#FCD000"></path>
            <path d="M458.6343,29.1934 L435.9413,29.1934 C435.2793,29.1934 434.7343,29.2734 434.7343,29.3734 L434.7343,32.4184 C434.7343,32.5174 435.2793,32.5974 435.9413,32.5974 L445.1303,32.5974 L445.1303,63.2564 C445.1303,63.3554 445.2103,63.4354 445.3103,63.4354 L449.0383,63.4354 C449.1383,63.4354 449.2183,63.3554 449.2183,63.2564 L449.2183,32.5974 L458.6343,32.5974 C459.3043,32.5974 459.8473,32.5174 459.8473,32.4184 L459.8473,29.3734 C459.8473,29.2734 459.3043,29.1934 458.6343,29.1934" id="Fill-16" fill="#FCD000"></path>
            <path d="M403.5991,59.9317 L387.1911,59.9317 L387.1911,29.8577 C387.1911,29.7577 387.1111,29.6777 387.0111,29.6777 L383.7491,29.6777 C383.6501,29.6777 383.5701,29.7577 383.5701,29.8577 L383.5701,63.2557 C383.5701,63.3557 383.6501,63.4357 383.7491,63.4357 L386.3201,63.4357 L387.0111,63.4357 L403.5991,63.4357 C403.6991,63.4357 403.7791,63.3557 403.7791,63.2557 L403.7791,60.1117 C403.7791,60.0117 403.6991,59.9317 403.5991,59.9317" id="Fill-17" fill="#FCD000"></path>
            <path d="M429.9976,29.1436 L412.1346,29.1436 C412.0876,29.1436 412.0466,29.1646 412.0156,29.1936 L409.4486,29.1936 C409.3496,29.1936 409.2686,29.2746 409.2686,29.3756 L409.2686,63.2526 C409.2686,63.3546 409.3496,63.4356 409.4486,63.4356 L412.1346,63.4356 L412.8256,63.4356 L429.9976,63.4356 C430.0976,63.4356 430.1776,63.3556 430.1776,63.2556 L430.1776,60.1116 C430.1776,60.0116 430.0976,59.9316 429.9976,59.9316 L413.0056,59.9316 L413.0056,47.8916 L426.9606,47.8916 C427.0596,47.8916 427.1406,47.8106 427.1406,47.7116 L427.1406,44.9166 C427.1406,44.8186 427.0596,44.7376 426.9606,44.7376 L413.0056,44.7376 L413.0056,32.6476 L429.9976,32.6476 C430.0976,32.6476 430.1776,32.5676 430.1776,32.4676 L430.1776,29.3236 C430.1776,29.2236 430.0976,29.1436 429.9976,29.1436" id="Fill-18" fill="#FCD000"></path>
            <path d="M347.2202,29.3281 C347.2202,29.1981 347.1402,29.0941 347.0402,29.0941 L343.5292,29.0941 C343.4292,29.0941 343.3492,29.1981 343.3492,29.3281 L343.3492,50.2741 L334.6852,60.2341 L326.0192,50.2741 L326.0192,29.3281 C326.0192,29.1981 325.9392,29.0941 325.8392,29.0941 L322.3272,29.0941 C322.2282,29.0941 322.1482,29.1981 322.1482,29.3281 L322.1482,50.9741 C322.1482,50.9741 322.0992,51.3481 322.2322,51.6621 C322.3662,51.9761 322.6262,52.2611 322.6262,52.2611 L331.3782,62.5791 C331.3782,62.5791 331.7942,63.0371 332.6072,63.2561 C333.5812,63.5191 334.6382,63.4221 334.6852,63.4311 C334.7302,63.4221 335.7862,63.5191 336.7612,63.2561 C337.5742,63.0371 337.9902,62.5791 337.9902,62.5791 L346.7412,52.2611 C346.7412,52.2611 347.0012,51.9761 347.1362,51.6621 C347.2692,51.3481 347.2202,50.9741 347.2202,50.9741 L347.2202,29.3281 Z" id="Fill-19" fill="#FCD000"></path>
            <path d="M373.2417,50.7559 L355.7707,50.7559 L355.7707,44.2619 C357.2397,41.7409 362.3117,33.8839 362.3117,33.8839 C362.6737,33.3579 362.7847,32.9499 363.4017,32.8499 L364.5077,32.8329 L365.6127,32.8499 C366.2297,32.9499 366.3417,33.3579 366.7027,33.8839 C366.7027,33.8839 371.7747,41.7409 373.2417,44.2619 L373.2417,50.7559 Z M376.6347,42.2759 L368.7027,29.5039 C368.7027,29.5039 368.5307,29.3319 368.3137,29.2249 C368.0507,29.0939 367.7987,29.1079 367.7537,29.0979 C367.7317,29.1029 366.2317,29.0859 364.5077,29.0919 C362.7827,29.0859 361.2807,29.1029 361.2617,29.0979 C361.2167,29.1079 360.9647,29.0939 360.6987,29.2249 C360.4817,29.3319 360.3097,29.5039 360.3097,29.5039 L352.3787,42.2759 C352.3787,42.2759 352.1187,42.5599 351.9837,42.8749 C351.8487,43.1879 351.8977,43.5629 351.8977,43.5629 L351.8997,63.2079 C351.8997,63.3379 351.9797,63.4429 352.0797,63.4429 L355.5917,63.4439 C355.6907,63.4439 355.7707,63.3379 355.7707,63.2069 L355.7707,54.3189 L373.2417,54.3189 L373.2417,63.2069 C373.2417,63.3379 373.3217,63.4439 373.4217,63.4439 L376.9347,63.4429 C377.0347,63.4429 377.1147,63.3379 377.1147,63.2079 L377.1147,43.5629 C377.1147,43.5629 377.1637,43.1879 377.0287,42.8749 C376.8957,42.5599 376.6347,42.2759 376.6347,42.2759 L376.6347,42.2759 Z" id="Fill-20" fill="#FCD000"></path>
        </g>
    </g>
</svg>