<?xml version="1.0" encoding="UTF-8"?>
<svg width="357px" height="35px" viewBox="0 0 357 35" version="1.1" xmlns="http://www.w3.org/2000/svg" xmlns:xlink="http://www.w3.org/1999/xlink">
    <!-- Generator: Sketch 46.2 (44496) - http://www.bohemiancoding.com/sketch -->
    <title>Page 1</title>
    <desc>Created with Sketch.</desc>
    <defs>
        <polygon id="path-1" points="0 34.4614 356.753 34.4614 356.753 0.0004 0 0.0004"></polygon>
    </defs>
    <g id="Page-1" stroke="none" stroke-width="1" fill="none" fill-rule="evenodd">
        <g>
            <path d="M26.2603,7.5141 C26.2603,7.7771 26.1693,7.9971 25.9893,8.1771 C25.8093,8.3571 25.5883,8.4471 25.3263,8.4471 L18.3583,8.4471 C18.0943,8.4471 17.8733,8.5291 17.6953,8.6931 C17.5143,8.8571 17.4243,9.0691 17.4243,9.3301 L17.4243,33.5291 C17.4243,33.7911 17.3423,34.0121 17.1793,34.1921 C17.0153,34.3711 16.8033,34.4611 16.5413,34.4611 L9.7193,34.4611 C9.4553,34.4611 9.2353,34.3711 9.0553,34.1921 C8.8753,34.0121 8.7863,33.7911 8.7863,33.5291 L8.7863,9.3301 C8.7863,9.0691 8.7043,8.8571 8.5403,8.6931 C8.3763,8.5291 8.1643,8.4471 7.9023,8.4471 L0.9323,8.4471 C0.6703,8.4471 0.4493,8.3571 0.2703,8.1771 C0.0903,7.9971 0.0003,7.7771 0.0003,7.5141 L0.0003,1.0351 C0.0003,0.4141 0.3103,0.1031 0.9323,0.1031 L7.9023,0.1031 L9.7193,0.1031 L16.5413,0.1031 L18.3583,0.1031 L25.3263,0.1031 C25.5883,0.1031 25.8093,0.1941 25.9893,0.3721 C26.1693,0.5531 26.2603,0.7741 26.2603,1.0351 L26.2603,7.5141 Z" id="Fill-1" fill="#000001"></path>
            <mask id="mask-2" fill="white">
                <use xlink:href="#path-1"></use>
            </mask>
            <g id="Clip-4"></g>
            <path d="M39.674,16.4484 L51.502,16.4484 L51.502,8.1034 L39.674,8.1034 L39.674,16.4484 Z M61.27,33.6764 C61.401,33.9054 61.417,34.0934 61.319,34.2404 C61.221,34.3884 61.042,34.4614 60.78,34.4614 L52.975,34.4614 C52.713,34.4614 52.452,34.3884 52.19,34.2404 C51.928,34.0934 51.731,33.9054 51.601,33.6764 L46.398,24.3504 C46.333,24.2204 46.217,24.1534 46.055,24.1534 L40.213,24.1534 C40.049,24.1534 39.968,24.2354 39.968,24.3984 L39.968,33.5284 C39.968,34.1504 39.657,34.4614 39.036,34.4614 L32.262,34.4614 C31.64,34.4614 31.33,34.1504 31.33,33.5284 L31.33,1.0354 C31.33,0.4144 31.64,0.1034 32.262,0.1034 L54.448,0.1034 C55.233,0.1034 55.977,0.2584 56.681,0.5684 C57.384,0.8804 57.99,1.2894 58.497,1.7964 C59.004,2.3044 59.413,2.9084 59.724,3.6124 C60.036,4.3154 60.19,5.0604 60.19,5.8454 L60.19,18.7544 C60.19,19.9984 59.823,21.1184 59.086,22.1164 C58.35,23.1154 57.409,23.7944 56.264,24.1534 L56.117,24.2024 C55.887,24.2694 55.838,24.3664 55.969,24.4974 L56.018,24.5954 L61.27,33.6764 Z" id="Fill-3" fill="#000001" mask="url(#mask-2)"></path>
            <path d="M75.976,16.4484 L87.51,16.4484 L87.51,7.8094 L75.976,7.8094 L75.976,16.4484 Z M90.456,0.1034 C91.241,0.1034 91.985,0.2584 92.689,0.5684 C93.392,0.8804 93.998,1.2894 94.505,1.7964 C95.012,2.3044 95.42,2.9084 95.732,3.6124 C96.042,4.3154 96.199,5.0604 96.199,5.8454 L96.199,33.5284 C96.199,33.7914 96.108,34.0124 95.928,34.1914 C95.749,34.3714 95.527,34.4614 95.266,34.4614 L88.443,34.4614 C88.181,34.4614 87.959,34.3714 87.781,34.1914 C87.6,34.0124 87.51,33.7914 87.51,33.5284 L87.51,24.7424 C87.51,24.4814 87.428,24.2604 87.265,24.0804 C87.101,23.9004 86.888,23.8104 86.627,23.8104 L76.909,23.8104 C76.646,23.8104 76.425,23.9004 76.246,24.0804 C76.066,24.2604 75.976,24.4814 75.976,24.7424 L75.976,33.5284 C75.976,34.1504 75.665,34.4614 75.043,34.4614 L68.27,34.4614 C67.647,34.4614 67.336,34.1504 67.336,33.5284 L67.336,5.8454 C67.336,5.0604 67.485,4.3154 67.779,3.6124 C68.073,2.9084 68.482,2.3044 69.006,1.7964 C69.529,1.2894 70.142,0.8804 70.846,0.5684 C71.55,0.2584 72.294,0.1034 73.08,0.1034 L90.456,0.1034 Z" id="Fill-5" fill="#000001" mask="url(#mask-2)"></path>
            <path d="M111.0659,33.5288 C111.0659,34.1508 110.7539,34.4618 110.1329,34.4618 L103.3599,34.4618 C102.7379,34.4618 102.4269,34.1508 102.4269,33.5288 L102.4269,1.0358 C102.4269,0.4148 102.7379,0.1028 103.3599,0.1028 L110.1329,0.1028 C110.7539,0.1028 111.0659,0.4148 111.0659,1.0358 L111.0659,33.5288 Z" id="Fill-6" fill="#000001" mask="url(#mask-2)"></path>
            <path d="M139.3916,26.1177 C139.6536,26.1177 139.8646,26.2077 140.0286,26.3877 C140.1926,26.5677 140.2746,26.7887 140.2746,27.0497 L140.2746,33.5287 C140.2746,33.7917 140.1926,34.0127 140.0286,34.1917 C139.8646,34.3717 139.6536,34.4617 139.3916,34.4617 L118.1866,34.4617 C117.5646,34.4617 117.2546,34.1507 117.2546,33.5287 L117.2546,1.0357 C117.2546,0.4147 117.5646,0.1027 118.1866,0.1027 L124.9596,0.1027 C125.5806,0.1027 125.8936,0.4147 125.8936,1.0357 L125.8936,25.2337 C125.8936,25.4957 125.9836,25.7087 126.1626,25.8717 C126.3426,26.0357 126.5636,26.1177 126.8256,26.1177 L139.3916,26.1177 Z" id="Fill-7" fill="#000001" mask="url(#mask-2)"></path>
            <path d="M153.6104,8.3491 L153.6104,13.6991 C153.6104,13.8301 153.6904,13.8951 153.8564,13.8951 L167.8444,13.8951 C168.1064,13.8951 168.3274,13.9861 168.5064,14.1651 C168.6864,14.3451 168.7764,14.5671 168.7764,14.8281 L168.7764,19.7371 C168.7764,20.3581 168.4654,20.6681 167.8444,20.6681 L153.8564,20.6681 C153.6904,20.6681 153.6104,20.7511 153.6104,20.9141 L153.6104,26.2151 C153.6104,26.3791 153.6904,26.4601 153.8564,26.4601 L170.2974,26.4601 C170.5594,26.4601 170.7804,26.5511 170.9624,26.7311 C171.1394,26.9111 171.2314,27.1321 171.2314,27.3931 L171.2314,33.5291 C171.2314,33.7911 171.1394,34.0121 170.9624,34.1921 C170.7804,34.3711 170.5594,34.4611 170.2974,34.4611 L150.7144,34.4611 C149.9284,34.4611 149.1844,34.3141 148.4814,34.0201 C147.7764,33.7251 147.1634,33.3161 146.6394,32.7921 C146.1164,32.2701 145.7084,31.6561 145.4134,30.9521 C145.1184,30.2481 144.9714,29.5041 144.9714,28.7181 L144.9714,5.8451 C144.9714,5.0601 145.1184,4.3161 145.4134,3.6131 C145.7084,2.9091 146.1164,2.3041 146.6394,1.7961 C147.1634,1.2891 147.7764,0.8801 148.4814,0.5691 C149.1844,0.2581 149.9284,0.1031 150.7144,0.1031 L170.2974,0.1031 C170.5594,0.1031 170.7804,0.1941 170.9624,0.3721 C171.1394,0.5531 171.2314,0.7741 171.2314,1.0361 L171.2314,7.2201 C171.2314,7.4821 171.1394,7.6951 170.9624,7.8581 C170.7804,8.0221 170.5594,8.1031 170.2974,8.1031 L153.8564,8.1031 C153.6904,8.1031 153.6104,8.1861 153.6104,8.3491" id="Fill-8" fill="#000001" mask="url(#mask-2)"></path>
            <path d="M185.544,16.4484 L197.374,16.4484 L197.374,8.1034 L185.544,8.1034 L185.544,16.4484 Z M207.142,33.6764 C207.271,33.9054 207.288,34.0934 207.19,34.2404 C207.093,34.3884 206.911,34.4614 206.649,34.4614 L198.847,34.4614 C198.583,34.4614 198.321,34.3884 198.062,34.2404 C197.798,34.0934 197.603,33.9054 197.472,33.6764 L192.269,24.3504 C192.202,24.2204 192.089,24.1534 191.925,24.1534 L186.085,24.1534 C185.921,24.1534 185.839,24.2354 185.839,24.3984 L185.839,33.5284 C185.839,34.1504 185.528,34.4614 184.905,34.4614 L178.132,34.4614 C177.511,34.4614 177.2,34.1504 177.2,33.5284 L177.2,1.0354 C177.2,0.4144 177.511,0.1034 178.132,0.1034 L200.319,0.1034 C201.104,0.1034 201.849,0.2584 202.552,0.5684 C203.255,0.8804 203.86,1.2894 204.368,1.7964 C204.874,2.3044 205.284,2.9084 205.595,3.6124 C205.905,4.3154 206.062,5.0604 206.062,5.8454 L206.062,18.7544 C206.062,19.9984 205.692,21.1184 204.956,22.1164 C204.22,23.1154 203.28,23.7944 202.134,24.1534 L201.987,24.2024 C201.759,24.2694 201.708,24.3664 201.841,24.4974 L201.89,24.5954 L207.142,33.6764 Z" id="Fill-9" fill="#000001" mask="url(#mask-2)"></path>
            <path d="M355.54,0.103 L332.847,0.103 C332.185,0.103 331.64,0.183 331.64,0.283 L331.64,3.328 C331.64,3.427 332.185,3.507 332.847,3.507 L342.036,3.507 L342.036,34.166 C342.036,34.265 342.116,34.345 342.216,34.345 L345.944,34.345 C346.044,34.345 346.124,34.265 346.124,34.166 L346.124,3.507 L355.54,3.507 C356.21,3.507 356.753,3.427 356.753,3.328 L356.753,0.283 C356.753,0.183 356.21,0.103 355.54,0.103" id="Fill-10" fill="#000001" mask="url(#mask-2)"></path>
            <path d="M300.5049,30.8413 L284.0969,30.8413 L284.0969,0.7673 C284.0969,0.6673 284.0169,0.5873 283.9169,0.5873 L280.6549,0.5873 C280.5559,0.5873 280.4759,0.6673 280.4759,0.7673 L280.4759,34.1653 C280.4759,34.2653 280.5559,34.3453 280.6549,34.3453 L283.2259,34.3453 L283.9169,34.3453 L300.5049,34.3453 C300.6049,34.3453 300.6849,34.2653 300.6849,34.1653 L300.6849,31.0213 C300.6849,30.9213 300.6049,30.8413 300.5049,30.8413" id="Fill-11" fill="#000001" mask="url(#mask-2)"></path>
            <path d="M326.9033,0.0532 L309.0403,0.0532 C308.9933,0.0532 308.9523,0.0742 308.9213,0.1032 L306.3543,0.1032 C306.2553,0.1032 306.1743,0.1842 306.1743,0.2852 L306.1743,34.1622 C306.1743,34.2642 306.2553,34.3452 306.3543,34.3452 L309.0403,34.3452 L309.7313,34.3452 L326.9033,34.3452 C327.0033,34.3452 327.0833,34.2652 327.0833,34.1652 L327.0833,31.0212 C327.0833,30.9212 327.0033,30.8412 326.9033,30.8412 L309.9113,30.8412 L309.9113,18.8012 L323.8663,18.8012 C323.9653,18.8012 324.0463,18.7202 324.0463,18.6212 L324.0463,15.8262 C324.0463,15.7282 323.9653,15.6472 323.8663,15.6472 L309.9113,15.6472 L309.9113,3.5572 L326.9033,3.5572 C327.0033,3.5572 327.0833,3.4772 327.0833,3.3772 L327.0833,0.2332 C327.0833,0.1332 327.0033,0.0532 326.9033,0.0532" id="Fill-12" fill="#000001" mask="url(#mask-2)"></path>
            <path d="M244.126,0.2378 C244.126,0.1078 244.046,0.0038 243.946,0.0038 L240.435,0.0038 C240.335,0.0038 240.255,0.1078 240.255,0.2378 L240.255,21.1838 L231.591,31.1438 L222.925,21.1838 L222.925,0.2378 C222.925,0.1078 222.845,0.0038 222.745,0.0038 L219.233,0.0038 C219.134,0.0038 219.054,0.1078 219.054,0.2378 L219.054,21.8838 C219.054,21.8838 219.005,22.2578 219.138,22.5718 C219.272,22.8858 219.532,23.1708 219.532,23.1708 L228.284,33.4888 C228.284,33.4888 228.7,33.9468 229.513,34.1658 C230.487,34.4288 231.544,34.3318 231.591,34.3408 C231.636,34.3318 232.692,34.4288 233.667,34.1658 C234.48,33.9468 234.896,33.4888 234.896,33.4888 L243.647,23.1708 C243.647,23.1708 243.907,22.8858 244.042,22.5718 C244.175,22.2578 244.126,21.8838 244.126,21.8838 L244.126,0.2378 Z" id="Fill-13" fill="#000001" mask="url(#mask-2)"></path>
            <path d="M270.1475,21.6655 L252.6765,21.6655 L252.6765,15.1715 C254.1455,12.6505 259.2175,4.7935 259.2175,4.7935 C259.5795,4.2675 259.6905,3.8595 260.3075,3.7595 L261.4135,3.7425 L262.5185,3.7595 C263.1355,3.8595 263.2475,4.2675 263.6085,4.7935 C263.6085,4.7935 268.6805,12.6505 270.1475,15.1715 L270.1475,21.6655 Z M273.5405,13.1855 L265.6085,0.4135 C265.6085,0.4135 265.4365,0.2415 265.2195,0.1345 C264.9565,0.0035 264.7045,0.0175 264.6595,0.0075 C264.6375,0.0125 263.1375,-0.0045 261.4135,0.0015 C259.6885,-0.0045 258.1865,0.0125 258.1675,0.0075 C258.1225,0.0175 257.8705,0.0035 257.6045,0.1345 C257.3875,0.2415 257.2155,0.4135 257.2155,0.4135 L249.2845,13.1855 C249.2845,13.1855 249.0245,13.4695 248.8895,13.7845 C248.7545,14.0975 248.8035,14.4725 248.8035,14.4725 L248.8055,34.1175 C248.8055,34.2475 248.8855,34.3525 248.9855,34.3525 L252.4975,34.3535 C252.5965,34.3535 252.6765,34.2475 252.6765,34.1165 L252.6765,25.2285 L270.1475,25.2285 L270.1475,34.1165 C270.1475,34.2475 270.2275,34.3535 270.3275,34.3535 L273.8405,34.3525 C273.9405,34.3525 274.0205,34.2475 274.0205,34.1175 L274.0205,14.4725 C274.0205,14.4725 274.0695,14.0975 273.9345,13.7845 C273.8015,13.4695 273.5405,13.1855 273.5405,13.1855 L273.5405,13.1855 Z" id="Fill-14" fill="#000001" mask="url(#mask-2)"></path>
        </g>
    </g>
</svg>