<?xml version="1.0" encoding="UTF-8"?>
<svg width="136px" height="156px" viewBox="0 0 136 156" version="1.1" xmlns="http://www.w3.org/2000/svg" xmlns:xlink="http://www.w3.org/1999/xlink">
    <!-- Generator: Sketch 46.2 (44496) - http://www.bohemiancoding.com/sketch -->
    <title>Page 1</title>
    <desc>Created with Sketch.</desc>
    <defs>
        <polygon id="path-1" points="135.928045 107 0.0109632653 107 0.0109632653 0.0181363082 135.928045 0.0181363082"></polygon>
    </defs>
    <g id="Page-1" stroke="none" stroke-width="1" fill="none" fill-rule="evenodd">
        <g>
            <g id="Group-3" transform="translate(0.000000, 49.000000)">
                <mask id="mask-2" fill="white">
                    <use xlink:href="#path-1"></use>
                </mask>
                <g id="Clip-2"></g>
                <path d="M133.238229,0.0276474194 L132.264024,0.0276474194 C131.946576,0.00624741935 131.730433,0.0276474194 131.730433,0.0276474194 L100.805004,0.0276474194 L99.6125755,0.0276474194 C98.1613306,0.492234516 97.6280857,1.50597323 97.6280857,2.96393452 C97.6159429,3.05540226 97.6159429,43.9711668 97.6159429,43.9711668 C97.5763918,44.6573474 97.3293714,46.0058926 96.0238408,46.8719023 L69.5777388,64.3384442 C69.3477184,64.47927 68.9119633,64.7012087 68.3561673,64.78957 C68.222249,64.8033765 68.0952694,64.8033765 67.9700245,64.7999248 C67.8430449,64.8033765 67.7164122,64.8033765 67.5842286,64.78957 C67.0284327,64.7012087 66.5905959,64.47927 66.3609224,64.3384442 L39.9137796,46.8719023 C38.6099837,46.0058926 38.3622694,44.6573474 38.3237592,43.9711668 C38.3237592,43.9711668 38.3237592,3.05540226 38.3105755,2.96393452 C38.3105755,1.50597323 37.7762898,0.492234516 36.3250449,0.0276474194 L35.1326163,0.0276474194 L4.20718776,0.0276474194 C4.20718776,0.0276474194 3.99208571,0.00624741935 3.67567755,0.0276474194 L2.70008571,0.0276474194 C1.54651429,0.203334516 0.0109632653,0.939563548 0.0109632653,3.60455387 L0.0109632653,36.1473958 L0.0109632653,53.1742023 L0.0109632653,53.3750861 L0.0109632653,57.8321539 C0.0161673469,57.9940345 0.0126979592,58.1245055 0.0231061224,58.328841 C0.0813918367,59.1983023 0.421044898,61.057341 2.38541224,62.416241 C2.38541224,62.416241 2.95647347,62.8107603 3.01857551,62.86357 C3.01857551,62.86357 21.3830857,75.5810377 38.2120449,87.2343732 C52.4257796,97.08217 65.535902,106.158186 65.535902,106.158186 C65.5480449,106.165089 65.6094531,106.207889 65.6233306,106.221696 C65.6868204,106.27416 65.8255959,106.380125 66.074351,106.528544 C66.4913714,106.771193 67.1536776,107.01177 67.9700245,106.999689 C68.7849837,107.01177 69.4472898,106.771193 69.8639633,106.528544 C70.1148,106.380125 70.2518408,106.27416 70.3153306,106.221696 C70.3309429,106.207889 70.392351,106.165089 70.4027592,106.158186 C70.4027592,106.158186 83.5128816,97.08217 97.7276571,87.2343732 C114.556616,75.5810377 132.919045,62.86357 132.919045,62.86357 C132.981147,62.8107603 133.553943,62.416241 133.553943,62.416241 C135.51831,61.057341 135.857963,59.1983023 135.916596,58.328841 C135.92631,58.1245055 135.923188,57.9940345 135.928045,57.8321539 L135.928045,53.3750861 L135.928045,53.1742023 L135.928045,36.1473958 L135.928045,3.60455387 C135.928045,0.939563548 134.392841,0.203334516 133.238229,0.0276474194" id="Fill-1" fill="#FFC82C" mask="url(#mask-2)"></path>
            </g>
            <path d="M3.13809842,0 C1.39081522,0 0,1.37693335 0,3.07718264 L0,34.6550608 C0.00173548193,34.9780324 -0.0180490121,35.2417811 0.0385276988,35.6349939 C0.134673398,36.2354869 0.501207181,36.9485725 1.34291592,37.4406049 C1.75977868,37.7704629 2.29708388,38.0056331 3.00759018,38.0056331 L3.6872049,38.0056331 L46.476206,38.0056331 C47.3703263,38.0056331 47.7444962,38.1006652 48.0311978,38.2339168 C48.3210233,38.4133073 48.5709327,38.7118322 48.7246964,39.1894032 L48.820495,40.2533502 L48.8170241,84.7745396 C48.8170241,86.414533 49.4230543,88.1987963 50.8558682,89.1577258 C51.0190035,89.2630876 65.9962126,99.2693542 65.9962126,99.2693542 C65.9962126,99.2693542 66.8528464,99.9858829 67.9580013,99.9962125 C69.1471536,99.9858829 70.0037874,99.2693542 70.0037874,99.2693542 C70.0037874,99.2693542 84.9834261,89.2630876 85.1434376,89.1577258 C86.5797224,88.1987963 87.1840172,86.414533 87.1840172,84.7745396 L87.1805463,40.2533502 L87.2749565,39.1894032 C87.4294144,38.7118322 87.6782825,38.4133073 87.9698434,38.2339168 C88.2565451,38.1006652 88.6289795,38.0056331 89.1937053,38.0056331 L132.311754,38.0056331 L132.993104,38.0056331 C133.702222,38.0056331 134.240916,37.7704629 134.656043,37.4406049 C135.49914,36.9485725 135.866368,36.2354869 135.960778,35.6349939 C136.017355,35.2417811 135.998612,34.9780324 135.979868,34.8199898 C135.988893,34.7520441 135.995603,24.1711084 136,3.07718264 C136,1.37693335 134.608491,0 132.896958,0 L3.13809842,0 Z" id="Fill-4" fill="#FFC82C"></path>
        </g>
    </g>
</svg>